<svg version="1.2" xmlns="http://www.w3.org/2000/svg" viewBox="0 0 512 512" width="512" height="512">
	<defs>
		<linearGradient id="g1" x2="1" gradientUnits="userSpaceOnUse" gradientTransform="matrix(443.4,0,0,444,34,39)">
			<stop offset="0" stop-color="#3c00ff"/>
			<stop offset=".25" stop-color="#5512fb"/>
			<stop offset=".5" stop-color="#6f00ff"/>
			<stop offset=".75" stop-color="#9600ff"/>
			<stop offset="1" stop-color="#aa00ff"/>
		</linearGradient>
	</defs>
	<style>
		tspan { white-space:pre } 
		.s0 { fill: url(#g1) } 
	</style>
	<g id="Layer 1">
		<text id="" style="transform: matrix(1,0,-0.17,1.123,126.542,311.624)">
		</text>
		<path id="E" fill-rule="evenodd" class="s0" d="m477.4 417.6q0-13.2-5.4-25.2-4.8-12-13.8-21-9-9-21-13.8-12-5.4-25.2-5.4h-156.6q-37.2 0-64.8-26.4-26.4-27.6-26.4-64.8 0-37.8 26.4-64.2 27-27 64.8-27h156.6q13.2 0 25.2-4.8 12-5.4 21-14.4 9-9 13.8-20.4 5.4-12 5.4-25.8 0-13.2-5.4-25.2-4.8-12-13.8-21-9-9-21-13.8-12-5.4-25.2-5.4h-156.6q-91.2 0-156.6 65.4-64.8 64.8-64.8 156.6 0 92.4 64.8 157.2 64.8 64.8 156.6 64.8h156.6q13.2 0 25.2-4.8 12-5.4 21-14.4 9-9 13.8-20.4 5.4-12 5.4-25.8zm0-156.6q0-13.2-5.4-25.2-4.8-12-13.8-21-9-9-21-13.8-12-5.4-25.2-5.4h-156.6q-13.8 0-25.8 5.4-11.4 4.8-20.4 13.8-8.4 9-13.8 21-4.8 12-4.8 25.2 0 27 19.2 46.2 19.2 19.2 45.6 19.2h156.6q13.2 0 25.2-4.8 12-5.4 21-14.4 9-9 13.8-20.4 5.4-12 5.4-25.8z"/>
	</g>
</svg>