<svg version="1.2" xmlns="http://www.w3.org/2000/svg" viewBox="0 0 1200 400" width="1200" height="400">
	<style>
		.s0 { fill: none;stroke: #ffffff;stroke-miterlimit:10;stroke-width: 10 } 
	</style>
	<g id="Layer 1">
		<path id="EAM" fill-rule="evenodd" class="s0" d="m380.76 331.86q0-10.72-4.39-20.47-3.9-9.75-11.21-17.07-7.31-7.31-17.06-11.21-9.75-4.38-20.48-4.38h-127.23q-30.23 0-52.65-21.46-21.45-22.42-21.45-52.65 0-30.71 21.45-52.16 21.94-21.94 52.65-21.94h127.23q10.73 0 20.48-3.9 9.75-4.38 17.06-11.7 7.31-7.31 11.21-16.57 4.39-9.75 4.39-20.96 0-10.73-4.39-20.48-3.9-9.75-11.21-17.06-7.31-7.31-17.06-11.21-9.75-4.39-20.48-4.39h-127.23q-74.1 0-127.24 53.14-52.65 52.65-52.65 127.23 0 75.08 52.65 127.73 52.65 52.65 127.24 52.65h127.23q10.73 0 20.48-3.9 9.75-4.39 17.06-11.7 7.31-7.31 11.21-16.57 4.39-9.75 4.39-20.97zm0-127.24q0-10.72-4.39-20.47-3.9-9.75-11.21-17.06-7.31-7.32-17.06-11.22-9.75-4.38-20.48-4.38h-127.23q-11.22 0-20.96 4.38-9.27 3.9-16.58 11.22-6.83 7.31-11.21 17.06-3.9 9.75-3.9 20.47 0 21.94 15.6 37.54 15.6 15.6 37.05 15.6h127.23q10.73 0 20.48-3.9 9.75-4.39 17.06-11.7 7.31-7.31 11.21-16.57 4.39-9.75 4.39-20.97zm399 127.24v-127.24q0-74.58-53.13-127.23-52.66-53.14-127.24-53.14-74.1 0-127.24 53.14-52.65 52.65-52.65 127.23v127.24q0 21.94 15.6 37.54 15.6 15.6 37.05 15.6 11.21 0 20.96-3.9 9.75-4.39 16.58-11.21 7.31-7.31 11.21-17.06 4.39-9.75 4.39-20.97v-127.24q0-30.71 21.45-52.16 21.93-21.94 52.65-21.94 30.71 0 52.65 21.94 21.94 21.94 21.94 52.16v127.24q0 21.94 15.59 37.54 15.6 15.6 37.06 15.6 10.72 0 20.47-3.9 9.75-4.39 17.06-11.7 7.32-7.31 11.21-16.57 4.39-9.75 4.39-20.97zm-127.24-127.24q0-10.72-4.38-20.47-3.9-9.75-11.22-17.06-7.31-7.32-17.06-11.22-9.75-4.38-20.47-4.38-11.22 0-20.97 4.38-9.26 3.9-16.57 11.22-6.82 7.31-11.21 17.06-3.9 9.75-3.9 20.47 0 21.94 15.6 37.54 15.6 15.6 37.05 15.6 10.72 0 20.47-3.9 9.75-4.39 17.06-11.7 7.32-7.31 11.22-16.57 4.38-9.75 4.38-20.97zm527.24 127.24v-127.23q0-74.59-53.14-127.24-52.65-53.14-127.23-53.14-74.1 0-127.24 53.14-52.65 52.65-52.65 127.23v127.24q0 21.94 15.6 37.54 15.6 15.6 37.05 15.6 11.21 0 20.96-3.9 9.75-4.39 16.58-11.21 7.31-7.31 11.21-17.06 4.39-9.75 4.39-20.97v-127.23q0-30.72 21.45-52.17 21.93-21.93 52.65-21.93 30.71 0 52.65 21.93 21.93 21.94 21.93 52.17v127.23q0 21.94 15.61 37.54 15.59 15.6 37.05 15.6 10.72 0 20.47-3.9 9.75-4.39 17.06-11.7 7.31-7.31 11.22-16.57 4.38-9.75 4.38-20.97zm-127.23 0v-127.23q0-10.73-4.39-20.48-3.9-9.75-11.22-17.06-7.31-7.31-17.06-11.21-9.75-4.39-20.47-4.39-11.22 0-20.97 4.39-9.26 3.9-16.57 11.21-6.82 7.31-11.21 17.06-3.9 9.75-3.9 20.48v127.23q0 21.94 15.6 37.54 15.6 15.6 37.05 15.6 10.72 0 20.47-3.9 9.75-4.39 17.06-11.7 7.32-7.31 11.22-16.57 4.39-9.75 4.39-20.97z"/>
	</g>
</svg>